<mxfile host="Electron" modified="2025-09-25T05:22:39.555Z" agent="Mozilla/5.0 (Windows NT 10.0; Win64; x64) AppleWebKit/537.36 (KHTML, like Gecko) draw.io/24.2.5 Chrome/120.0.6099.109 Electron/28.1.0 Safari/537.36" etag="DotT3bd8bwwCbLaHo_0J" version="24.2.5" type="device">
  <diagram id="C5RBs43oDa-KdzZeNtuy" name="Page-1">
    <mxGraphModel dx="1709" dy="2134" grid="1" gridSize="10" guides="1" tooltips="1" connect="1" arrows="1" fold="1" page="1" pageScale="1" pageWidth="827" pageHeight="1169" math="0" shadow="0">
      <root>
        <mxCell id="WIyWlLk6GJQsqaUBKTNV-0" />
        <mxCell id="WIyWlLk6GJQsqaUBKTNV-1" parent="WIyWlLk6GJQsqaUBKTNV-0" />
        <mxCell id="HawzbvxG_DwuH_7851Qz-2" value="" style="edgeStyle=orthogonalEdgeStyle;rounded=0;orthogonalLoop=1;jettySize=auto;html=1;" parent="WIyWlLk6GJQsqaUBKTNV-1" source="HawzbvxG_DwuH_7851Qz-0" target="HawzbvxG_DwuH_7851Qz-1" edge="1">
          <mxGeometry relative="1" as="geometry" />
        </mxCell>
        <mxCell id="HawzbvxG_DwuH_7851Qz-0" value="INICIO" style="ellipse;whiteSpace=wrap;html=1;aspect=fixed;" parent="WIyWlLk6GJQsqaUBKTNV-1" vertex="1">
          <mxGeometry x="367" y="-140" width="80" height="80" as="geometry" />
        </mxCell>
        <mxCell id="HawzbvxG_DwuH_7851Qz-6" value="" style="edgeStyle=orthogonalEdgeStyle;rounded=0;orthogonalLoop=1;jettySize=auto;html=1;" parent="WIyWlLk6GJQsqaUBKTNV-1" source="HawzbvxG_DwuH_7851Qz-1" target="HawzbvxG_DwuH_7851Qz-5" edge="1">
          <mxGeometry relative="1" as="geometry" />
        </mxCell>
        <mxCell id="HawzbvxG_DwuH_7851Qz-1" value="se abre la aplicacion" style="rounded=1;whiteSpace=wrap;html=1;" parent="WIyWlLk6GJQsqaUBKTNV-1" vertex="1">
          <mxGeometry x="347" y="-30" width="120" height="60" as="geometry" />
        </mxCell>
        <mxCell id="HawzbvxG_DwuH_7851Qz-11" value="" style="edgeStyle=orthogonalEdgeStyle;rounded=0;orthogonalLoop=1;jettySize=auto;html=1;" parent="WIyWlLk6GJQsqaUBKTNV-1" source="HawzbvxG_DwuH_7851Qz-5" target="HawzbvxG_DwuH_7851Qz-10" edge="1">
          <mxGeometry relative="1" as="geometry" />
        </mxCell>
        <mxCell id="HawzbvxG_DwuH_7851Qz-12" value="NO" style="edgeLabel;html=1;align=center;verticalAlign=middle;resizable=0;points=[];" parent="HawzbvxG_DwuH_7851Qz-11" vertex="1" connectable="0">
          <mxGeometry x="-0.0927" relative="1" as="geometry">
            <mxPoint as="offset" />
          </mxGeometry>
        </mxCell>
        <mxCell id="HawzbvxG_DwuH_7851Qz-22" value="" style="edgeStyle=orthogonalEdgeStyle;rounded=0;orthogonalLoop=1;jettySize=auto;html=1;" parent="WIyWlLk6GJQsqaUBKTNV-1" source="HawzbvxG_DwuH_7851Qz-5" target="HawzbvxG_DwuH_7851Qz-7" edge="1">
          <mxGeometry relative="1" as="geometry" />
        </mxCell>
        <mxCell id="HawzbvxG_DwuH_7851Qz-5" value="¿es la primera vez que se abre la aplicacion?" style="rhombus;whiteSpace=wrap;html=1;" parent="WIyWlLk6GJQsqaUBKTNV-1" vertex="1">
          <mxGeometry x="338.5" y="60" width="137" height="140" as="geometry" />
        </mxCell>
        <mxCell id="l2_vBReTs5hFMAvUih7q-10" value="" style="edgeStyle=orthogonalEdgeStyle;rounded=0;orthogonalLoop=1;jettySize=auto;html=1;" edge="1" parent="WIyWlLk6GJQsqaUBKTNV-1" source="HawzbvxG_DwuH_7851Qz-7" target="l2_vBReTs5hFMAvUih7q-9">
          <mxGeometry relative="1" as="geometry" />
        </mxCell>
        <mxCell id="HawzbvxG_DwuH_7851Qz-7" value="Se pide CURP al director" style="rounded=1;whiteSpace=wrap;html=1;" parent="WIyWlLk6GJQsqaUBKTNV-1" vertex="1">
          <mxGeometry x="347" y="230" width="120" height="60" as="geometry" />
        </mxCell>
        <mxCell id="l2_vBReTs5hFMAvUih7q-2" value="" style="edgeStyle=orthogonalEdgeStyle;rounded=0;orthogonalLoop=1;jettySize=auto;html=1;" edge="1" parent="WIyWlLk6GJQsqaUBKTNV-1" source="HawzbvxG_DwuH_7851Qz-10" target="l2_vBReTs5hFMAvUih7q-1">
          <mxGeometry relative="1" as="geometry" />
        </mxCell>
        <mxCell id="HawzbvxG_DwuH_7851Qz-10" value="Se piden datos de inicio de sesion" style="rounded=1;whiteSpace=wrap;html=1;" parent="WIyWlLk6GJQsqaUBKTNV-1" vertex="1">
          <mxGeometry x="36" y="270" width="120" height="60" as="geometry" />
        </mxCell>
        <mxCell id="HawzbvxG_DwuH_7851Qz-19" value="" style="edgeStyle=orthogonalEdgeStyle;rounded=0;orthogonalLoop=1;jettySize=auto;html=1;entryX=0.5;entryY=0;entryDx=0;entryDy=0;" parent="WIyWlLk6GJQsqaUBKTNV-1" source="HawzbvxG_DwuH_7851Qz-15" target="HawzbvxG_DwuH_7851Qz-25" edge="1">
          <mxGeometry relative="1" as="geometry">
            <mxPoint x="410" y="700" as="targetPoint" />
          </mxGeometry>
        </mxCell>
        <mxCell id="l2_vBReTs5hFMAvUih7q-8" value="SI" style="edgeLabel;html=1;align=center;verticalAlign=middle;resizable=0;points=[];" vertex="1" connectable="0" parent="HawzbvxG_DwuH_7851Qz-19">
          <mxGeometry x="-0.1706" y="-1" relative="1" as="geometry">
            <mxPoint as="offset" />
          </mxGeometry>
        </mxCell>
        <mxCell id="HawzbvxG_DwuH_7851Qz-21" value="" style="edgeStyle=orthogonalEdgeStyle;rounded=0;orthogonalLoop=1;jettySize=auto;html=1;entryX=0.5;entryY=0;entryDx=0;entryDy=0;" parent="WIyWlLk6GJQsqaUBKTNV-1" source="HawzbvxG_DwuH_7851Qz-15" target="HawzbvxG_DwuH_7851Qz-42" edge="1">
          <mxGeometry relative="1" as="geometry">
            <mxPoint x="256" y="560" as="targetPoint" />
          </mxGeometry>
        </mxCell>
        <mxCell id="HawzbvxG_DwuH_7851Qz-24" value="NO" style="edgeLabel;html=1;align=center;verticalAlign=middle;resizable=0;points=[];" parent="HawzbvxG_DwuH_7851Qz-21" vertex="1" connectable="0">
          <mxGeometry x="-0.0487" y="2" relative="1" as="geometry">
            <mxPoint x="57" y="-2" as="offset" />
          </mxGeometry>
        </mxCell>
        <mxCell id="HawzbvxG_DwuH_7851Qz-15" value="Se pregunta si se quiere registrar secretarias de una vez" style="rhombus;whiteSpace=wrap;html=1;rounded=1;" parent="WIyWlLk6GJQsqaUBKTNV-1" vertex="1">
          <mxGeometry x="337" y="530" width="140" height="140" as="geometry" />
        </mxCell>
        <mxCell id="HawzbvxG_DwuH_7851Qz-44" style="edgeStyle=orthogonalEdgeStyle;rounded=0;orthogonalLoop=1;jettySize=auto;html=1;exitX=0;exitY=0.5;exitDx=0;exitDy=0;entryX=1;entryY=0.5;entryDx=0;entryDy=0;" parent="WIyWlLk6GJQsqaUBKTNV-1" source="HawzbvxG_DwuH_7851Qz-25" target="HawzbvxG_DwuH_7851Qz-42" edge="1">
          <mxGeometry relative="1" as="geometry" />
        </mxCell>
        <mxCell id="HawzbvxG_DwuH_7851Qz-25" value="Se abre formulario de registro de secretaria" style="shape=process;whiteSpace=wrap;html=1;backgroundOutline=1;" parent="WIyWlLk6GJQsqaUBKTNV-1" vertex="1">
          <mxGeometry x="347" y="710" width="120" height="60" as="geometry" />
        </mxCell>
        <mxCell id="HawzbvxG_DwuH_7851Qz-31" value="" style="edgeStyle=orthogonalEdgeStyle;rounded=0;orthogonalLoop=1;jettySize=auto;html=1;entryX=0;entryY=0.5;entryDx=0;entryDy=0;" parent="WIyWlLk6GJQsqaUBKTNV-1" source="HawzbvxG_DwuH_7851Qz-29" target="HawzbvxG_DwuH_7851Qz-42" edge="1">
          <mxGeometry relative="1" as="geometry">
            <mxPoint x="-14" y="530" as="targetPoint" />
          </mxGeometry>
        </mxCell>
        <mxCell id="HawzbvxG_DwuH_7851Qz-32" value="SI" style="edgeLabel;html=1;align=center;verticalAlign=middle;resizable=0;points=[];" parent="HawzbvxG_DwuH_7851Qz-31" vertex="1" connectable="0">
          <mxGeometry x="-0.0941" y="1" relative="1" as="geometry">
            <mxPoint as="offset" />
          </mxGeometry>
        </mxCell>
        <mxCell id="l2_vBReTs5hFMAvUih7q-4" value="" style="edgeStyle=orthogonalEdgeStyle;rounded=0;orthogonalLoop=1;jettySize=auto;html=1;" edge="1" parent="WIyWlLk6GJQsqaUBKTNV-1" source="HawzbvxG_DwuH_7851Qz-29" target="HawzbvxG_DwuH_7851Qz-37">
          <mxGeometry relative="1" as="geometry" />
        </mxCell>
        <mxCell id="l2_vBReTs5hFMAvUih7q-5" value="NO" style="edgeLabel;html=1;align=center;verticalAlign=middle;resizable=0;points=[];" vertex="1" connectable="0" parent="l2_vBReTs5hFMAvUih7q-4">
          <mxGeometry x="-0.3285" y="1" relative="1" as="geometry">
            <mxPoint as="offset" />
          </mxGeometry>
        </mxCell>
        <mxCell id="HawzbvxG_DwuH_7851Qz-29" value="¿Son correctos?" style="rhombus;whiteSpace=wrap;html=1;rounded=1;" parent="WIyWlLk6GJQsqaUBKTNV-1" vertex="1">
          <mxGeometry x="56" y="480" width="80" height="80" as="geometry" />
        </mxCell>
        <mxCell id="HawzbvxG_DwuH_7851Qz-38" style="edgeStyle=orthogonalEdgeStyle;rounded=0;orthogonalLoop=1;jettySize=auto;html=1;exitX=0.5;exitY=0;exitDx=0;exitDy=0;entryX=0;entryY=0.5;entryDx=0;entryDy=0;" parent="WIyWlLk6GJQsqaUBKTNV-1" source="HawzbvxG_DwuH_7851Qz-37" target="HawzbvxG_DwuH_7851Qz-10" edge="1">
          <mxGeometry relative="1" as="geometry" />
        </mxCell>
        <mxCell id="HawzbvxG_DwuH_7851Qz-39" value="NO" style="edgeLabel;html=1;align=center;verticalAlign=middle;resizable=0;points=[];" parent="HawzbvxG_DwuH_7851Qz-38" vertex="1" connectable="0">
          <mxGeometry x="0.0811" y="-3" relative="1" as="geometry">
            <mxPoint as="offset" />
          </mxGeometry>
        </mxCell>
        <mxCell id="HawzbvxG_DwuH_7851Qz-41" value="" style="edgeStyle=orthogonalEdgeStyle;rounded=0;orthogonalLoop=1;jettySize=auto;html=1;" parent="WIyWlLk6GJQsqaUBKTNV-1" source="HawzbvxG_DwuH_7851Qz-37" target="HawzbvxG_DwuH_7851Qz-40" edge="1">
          <mxGeometry relative="1" as="geometry" />
        </mxCell>
        <mxCell id="l2_vBReTs5hFMAvUih7q-6" value="SI" style="edgeLabel;html=1;align=center;verticalAlign=middle;resizable=0;points=[];" vertex="1" connectable="0" parent="HawzbvxG_DwuH_7851Qz-41">
          <mxGeometry x="-0.3791" y="2" relative="1" as="geometry">
            <mxPoint as="offset" />
          </mxGeometry>
        </mxCell>
        <mxCell id="HawzbvxG_DwuH_7851Qz-37" value="¿Lleva más de tres intentos?" style="rhombus;whiteSpace=wrap;html=1;rounded=1;" parent="WIyWlLk6GJQsqaUBKTNV-1" vertex="1">
          <mxGeometry x="-130" y="480" width="80" height="80" as="geometry" />
        </mxCell>
        <mxCell id="HawzbvxG_DwuH_7851Qz-40" value="Pedir reestablecer" style="whiteSpace=wrap;html=1;rounded=1;" parent="WIyWlLk6GJQsqaUBKTNV-1" vertex="1">
          <mxGeometry x="-150" y="650" width="120" height="60" as="geometry" />
        </mxCell>
        <mxCell id="HawzbvxG_DwuH_7851Qz-46" value="" style="edgeStyle=orthogonalEdgeStyle;rounded=0;orthogonalLoop=1;jettySize=auto;html=1;" parent="WIyWlLk6GJQsqaUBKTNV-1" source="HawzbvxG_DwuH_7851Qz-42" target="HawzbvxG_DwuH_7851Qz-45" edge="1">
          <mxGeometry relative="1" as="geometry" />
        </mxCell>
        <mxCell id="HawzbvxG_DwuH_7851Qz-42" value="Se abre el menú principal" style="shape=process;whiteSpace=wrap;html=1;backgroundOutline=1;" parent="WIyWlLk6GJQsqaUBKTNV-1" vertex="1">
          <mxGeometry x="120" y="710" width="120" height="60" as="geometry" />
        </mxCell>
        <mxCell id="HawzbvxG_DwuH_7851Qz-45" value="FIN" style="ellipse;whiteSpace=wrap;html=1;" parent="WIyWlLk6GJQsqaUBKTNV-1" vertex="1">
          <mxGeometry x="140" y="840" width="80" height="80" as="geometry" />
        </mxCell>
        <mxCell id="l2_vBReTs5hFMAvUih7q-3" value="" style="edgeStyle=orthogonalEdgeStyle;rounded=0;orthogonalLoop=1;jettySize=auto;html=1;" edge="1" parent="WIyWlLk6GJQsqaUBKTNV-1" source="l2_vBReTs5hFMAvUih7q-1" target="HawzbvxG_DwuH_7851Qz-29">
          <mxGeometry relative="1" as="geometry" />
        </mxCell>
        <mxCell id="l2_vBReTs5hFMAvUih7q-1" value="Se consultan credenciales" style="shape=cylinder3;whiteSpace=wrap;html=1;boundedLbl=1;backgroundOutline=1;size=15;" vertex="1" parent="WIyWlLk6GJQsqaUBKTNV-1">
          <mxGeometry x="66" y="360" width="60" height="80" as="geometry" />
        </mxCell>
        <mxCell id="l2_vBReTs5hFMAvUih7q-12" value="" style="edgeStyle=orthogonalEdgeStyle;rounded=0;orthogonalLoop=1;jettySize=auto;html=1;" edge="1" parent="WIyWlLk6GJQsqaUBKTNV-1" source="l2_vBReTs5hFMAvUih7q-9" target="l2_vBReTs5hFMAvUih7q-11">
          <mxGeometry relative="1" as="geometry" />
        </mxCell>
        <mxCell id="l2_vBReTs5hFMAvUih7q-9" value="Director crea contraseña" style="rounded=1;whiteSpace=wrap;html=1;" vertex="1" parent="WIyWlLk6GJQsqaUBKTNV-1">
          <mxGeometry x="347" y="330" width="120" height="60" as="geometry" />
        </mxCell>
        <mxCell id="l2_vBReTs5hFMAvUih7q-13" value="" style="edgeStyle=orthogonalEdgeStyle;rounded=0;orthogonalLoop=1;jettySize=auto;html=1;" edge="1" parent="WIyWlLk6GJQsqaUBKTNV-1" source="l2_vBReTs5hFMAvUih7q-11" target="HawzbvxG_DwuH_7851Qz-15">
          <mxGeometry relative="1" as="geometry" />
        </mxCell>
        <mxCell id="l2_vBReTs5hFMAvUih7q-11" value="Se guardan credenciales" style="shape=cylinder3;whiteSpace=wrap;html=1;boundedLbl=1;backgroundOutline=1;size=15;" vertex="1" parent="WIyWlLk6GJQsqaUBKTNV-1">
          <mxGeometry x="371.75" y="420" width="70.5" height="90" as="geometry" />
        </mxCell>
      </root>
    </mxGraphModel>
  </diagram>
</mxfile>
